<?xml version="1.0" encoding="UTF-8" standalone="no"?>
<!-- Created with Inkscape (http://www.inkscape.org/) -->

<svg
   width="512"
   height="512"
   viewBox="0 0 135.46666 135.46667"
   version="1.1"
   id="svg1"
   inkscape:version="1.3.2 (091e20e, 2023-11-25, custom)"
   sodipodi:docname="Steering Wheel.svg"
   inkscape:export-filename="Icon.png"
   inkscape:export-xdpi="96"
   inkscape:export-ydpi="96"
   xmlns:inkscape="http://www.inkscape.org/namespaces/inkscape"
   xmlns:sodipodi="http://sodipodi.sourceforge.net/DTD/sodipodi-0.dtd"
   xmlns="http://www.w3.org/2000/svg"
   xmlns:svg="http://www.w3.org/2000/svg">
  <sodipodi:namedview
     id="namedview1"
     pagecolor="#ffffff"
     bordercolor="#000000"
     borderopacity="0.25"
     inkscape:showpageshadow="2"
     inkscape:pageopacity="0.0"
     inkscape:pagecheckerboard="0"
     inkscape:deskcolor="#d1d1d1"
     inkscape:document-units="mm"
     inkscape:zoom="2.2910156"
     inkscape:cx="256"
     inkscape:cy="256"
     inkscape:window-width="2560"
     inkscape:window-height="1369"
     inkscape:window-x="-8"
     inkscape:window-y="-8"
     inkscape:window-maximized="1"
     inkscape:current-layer="layer1"
     showguides="true" />
  <defs
     id="defs1" />
  <g
     inkscape:label="Layer 1"
     inkscape:groupmode="layer"
     id="layer1">
    <path
       id="path7"
       style="fill:#000000;stroke:none;stroke-width:0.258382;stroke-opacity:0.5"
       d="M 67.733328,1.5872412 A 66.145837,66.145837 0 0 0 1.5872412,67.733328 66.145837,66.145837 0 0 0 67.733328,133.87891 66.145837,66.145837 0 0 0 133.87891,67.733328 66.145837,66.145837 0 0 0 67.733328,1.5872412 Z m 0,11.8860398 A 54.260252,54.260252 0 0 1 121.41998,60.448091 77.914111,19.775157 0 0 0 66.377206,54.637295 77.914111,19.775157 0 0 0 14.095722,59.822111 54.260252,54.260252 0 0 1 67.733328,13.473281 Z M 42.153591,68.454874 a 75.347838,65.355476 0 0 1 18.609007,42.890776 75.347838,65.355476 0 0 1 -1.02139,9.96612 54.260252,54.260252 0 0 1 -45.880609,-48.656559 77.914111,19.775157 0 0 1 28.292992,-4.200337 z m 51.123067,0.231076 a 77.914111,19.775157 0 0 1 28.279852,4.601814 54.260252,54.260252 0 0 1 -45.829041,48.031086 75.347838,65.355476 0 0 1 -1.022906,-9.9732 75.347838,65.355476 0 0 1 18.572095,-42.6597 z" />
  </g>
</svg>
